/* XPM */
static char * window_close_xpm[] = {
"17 17 2 1",
" 	c #000000",
".	c #139BFF",
"                 ",
"                 ",
"                 ",
"                 ",
"                 ",
"     .     .     ",
"      .   .      ",
"       . .       ",
"        .        ",
"       . .       ",
"      .   .      ",
"     .     .     ",
"                 ",
"                 ",
"                 ",
"                 ",
"                 "};
