/* XPM */
static char * window_stick_xpm[] = {
"17 17 2 1",
" 	c #000000",
".	c #139BFF",
"                 ",
"                 ",
"                 ",
"                 ",
"                 ",
"                 ",
"                 ",
"       ...       ",
"       ...       ",
"       ...       ",
"                 ",
"                 ",
"                 ",
"                 ",
"                 ",
"                 ",
"                 "};
