/* XPM */
static char * window_iconify_pressed_xpm[] = {
"17 17 2 1",
" 	c #000000",
".	c #FFFFFF",
"                 ",
"                 ",
"                 ",
"                 ",
"                 ",
"                 ",
"    .       .    ",
"     .     .     ",
"      .   .      ",
"       . .       ",
"        .        ",
"                 ",
"                 ",
"                 ",
"                 ",
"                 ",
"                 "};
